<svg width="20" height="20" viewBox="0 0 20 20" fill="none" xmlns="http://www.w3.org/2000/svg">
<g clip-path="url(#clip0_1155_516)">
<path d="M1.85185 0H18.1481C19.1704 0 20 0.533235 20 1.18867V2.85503C20 3.11794 19.6667 3.33272 19.2593 3.33272H0.740741C0.333333 3.33272 0 3.11794 0 2.85503V1.18867C0 0.533235 0.82963 0 1.85185 0Z" fill="#4D5464"/>
<path d="M0.740723 5.8322V18.1262C0.740723 19.1631 1.54813 19.9999 2.54813 19.9999H17.4555C18.4518 19.9999 19.2629 19.1594 19.2629 18.1262V5.8322C19.2629 5.37303 18.9037 4.99902 18.4592 4.99902H1.54443C1.09998 4.99902 0.740723 5.37303 0.740723 5.8322ZM12.7889 11.7607H7.14813C6.70369 11.7607 6.34443 11.3867 6.34443 10.9239V9.58706C6.34443 9.12419 6.70369 8.75018 7.14813 8.75018H12.7889C13.2333 8.75018 13.5926 9.12419 13.5926 9.58336V10.9276C13.5926 11.3867 13.2333 11.7607 12.7889 11.7607Z" fill="#4D5464"/>
</g>
<defs>
<clipPath id="clip0_1155_516">
<rect width="20" height="20" fill="white"/>
</clipPath>
</defs>
</svg>
