<svg width="19" height="20" viewBox="0 0 19 20" fill="none" xmlns="http://www.w3.org/2000/svg">
<path d="M0 17V3C0 1.34315 1.34315 0 3 0H3.5H15.5H16C17.6569 0 19 1.34315 19 3V17C19 18.6569 17.6569 20 16 20H3C1.34315 20 0 18.6569 0 17Z" fill="#9C95FA"/>
<path d="M6 8.75951V0.5C6 0.223858 6.22386 0 6.5 0H12.5C12.7761 0 13 0.223858 13 0.5V8.75951C13 9.20958 12.4519 9.43051 12.1398 9.10624L9.86024 6.73792C9.66355 6.53356 9.33645 6.53356 9.13976 6.73792L6.86024 9.10624C6.54813 9.43051 6 9.20958 6 8.75951Z" fill="#5C54F5"/>
</svg>
