<svg width="20" height="20" viewBox="0 0 20 20" fill="none" xmlns="http://www.w3.org/2000/svg">
<g clip-path="url(#clip0_1155_507)">
<path d="M11.0407 0.318468L19.6741 6.18514C19.8778 6.32217 20 6.5518 20 6.79625V18.1074C20 19.1481 19.1704 19.9962 18.1481 19.9962H13.7C13.4963 19.9962 13.3296 19.8259 13.3296 19.6185V15.4629C13.3296 14.4222 12.5 13.3259 11.4778 13.3259H8.51481C7.49259 13.3259 6.66296 14.4185 6.66296 15.4629V19.6185C6.66296 19.8259 6.4963 19.9962 6.29259 19.9962H1.85185C0.82963 19.9962 0 19.1518 0 18.1074V6.79625C0 6.5518 0.122222 6.32217 0.325926 6.18514L8.95926 0.318468C9.58889 -0.107458 10.4111 -0.107458 11.0407 0.318468Z" fill="#EAEFF5"/>
</g>
<defs>
<clipPath id="clip0_1155_507">
<rect width="20" height="20" fill="white"/>
</clipPath>
</defs>
</svg>
