<svg width="20" height="21" viewBox="0 0 20 21" fill="none" xmlns="http://www.w3.org/2000/svg">
<path d="M16 0.5H16.5C18.1569 0.5 19.5 1.84315 19.5 3.5V17.5C19.5 19.1569 18.1569 20.5 16.5 20.5H3.5C1.84315 20.5 0.5 19.1569 0.5 17.5V3.5C0.5 1.84315 1.84315 0.5 3.5 0.5H4" stroke="#8E99AD" stroke-linecap="round"/>
<path d="M6.5 9.25951V1C6.5 0.723858 6.72386 0.5 7 0.5H13C13.2761 0.5 13.5 0.723858 13.5 1V9.25951C13.5 9.70958 12.9519 9.93051 12.6398 9.60624L10.3602 7.23792C10.1636 7.03356 9.83645 7.03356 9.63976 7.23792L7.36024 9.60624C7.04813 9.93051 6.5 9.70958 6.5 9.25951Z" stroke="#8E99AD"/>
</svg>
