<svg width="21" height="23" viewBox="0 0 21 23" fill="none" xmlns="http://www.w3.org/2000/svg">
<path d="M15.5 8.5V3.5C15.5 1.84315 14.1569 0.5 12.5 0.5H3.5C1.84315 0.5 0.5 1.84315 0.5 3.5V17.5C0.5 19.1569 1.84315 20.5 3.5 20.5H8" stroke="#8E99AD" stroke-linecap="round"/>
<path d="M10.8331 16.7303L10.7117 18.973C10.6635 19.8642 11.3994 20.6001 12.2906 20.5519L14.5333 20.4305C14.9025 20.4105 15.2514 20.2549 15.5129 19.9934L19.703 15.8033C20.2888 15.2175 20.2888 14.2678 19.703 13.682L17.5817 11.5607C16.9959 10.9749 16.0461 10.9749 15.4603 11.5607L11.2703 15.7507C11.0088 16.0122 10.8531 16.3611 10.8331 16.7303Z" stroke="#8E99AD"/>
<line x1="4" y1="5.7998" x2="12" y2="5.7998" stroke="#8E99AD" stroke-linecap="round"/>
<line x1="4" y1="9.59961" x2="11" y2="9.59961" stroke="#8E99AD" stroke-linecap="round"/>
<line x1="4" y1="13.3994" x2="8" y2="13.3994" stroke="#8E99AD" stroke-linecap="round"/>
</svg>
