<svg width="21" height="24" viewBox="0 0 21 24" fill="none" xmlns="http://www.w3.org/2000/svg">
<path d="M12 0H3C1.34315 0 0 1.34315 0 3V17C0 18.6569 1.34315 20 3 20H7.5H12C13.6569 20 15 18.6569 15 17V8V3C15 1.34315 13.6569 0 12 0Z" fill="#9C95FA"/>
<path d="M10.3331 17.2303L10.2117 19.473C10.1635 20.3642 10.8994 21.1001 11.7906 21.0519L14.0333 20.9305C14.4025 20.9105 14.7514 20.7549 15.0129 20.4934L19.203 16.3033C19.7888 15.7175 19.7888 14.7678 19.203 14.182L17.0817 12.0607C16.4959 11.4749 15.5461 11.4749 14.9603 12.0607L10.7703 16.2507C10.5088 16.5122 10.3531 16.8611 10.3331 17.2303Z" fill="#5C54F5"/>
<line x1="3.6" y1="5.1998" x2="11.4" y2="5.1998" stroke="#5C54F5" stroke-width="1.2" stroke-linecap="round"/>
<line x1="3.6" y1="8.99961" x2="10.4" y2="8.99961" stroke="#5C54F5" stroke-width="1.2" stroke-linecap="round"/>
<line x1="3.6" y1="12.7994" x2="7.4" y2="12.7994" stroke="#5C54F5" stroke-width="1.2" stroke-linecap="round"/>
</svg>
