<svg width="22" height="22" viewBox="0 0 22 22" fill="none" xmlns="http://www.w3.org/2000/svg">
<g clip-path="url(#clip0_1155_511)">
<path d="M17.5754 10.8201V19.5603C17.5754 20.9082 16.4731 22 15.1191 22H2.45639C1.09923 22 0 20.9082 0 19.5603V6.98365C0 5.63571 1.09923 4.54395 2.45639 4.54395H10.9585L7.67006 7.81009C7.05904 8.42002 6.68137 9.21902 6.60768 10.0577L6.36204 12.9243C6.3037 13.6013 6.36818 14.44 6.82261 14.931C7.28011 15.425 8.09686 15.5409 8.77544 15.5409C8.84606 15.5409 8.91668 15.5378 8.9873 15.5348L11.8766 15.2878C12.721 15.2176 13.5255 14.8425 14.1396 14.2326L17.5754 10.8201Z" fill="#4D5464"/>
<path d="M17.6031 0.533786L8.97506 9.10323C8.66801 9.4082 8.48071 9.80465 8.44387 10.2133L8.17059 13.4093C8.15217 13.6075 8.30263 13.757 8.50221 13.7387L11.7201 13.4672C12.1315 13.4337 12.5307 13.2446 12.8377 12.9397L21.4658 4.37022C22.1321 3.70845 22.1843 2.68987 21.5855 2.09519L19.8937 0.414851C19.2949 -0.179826 18.2694 -0.127983 17.6031 0.533786Z" fill="#4D5464"/>
</g>
<defs>
<clipPath id="clip0_1155_511">
<rect width="22" height="22" fill="white"/>
</clipPath>
</defs>
</svg>
