<svg width="17" height="15" viewBox="0 0 17 15" fill="none" xmlns="http://www.w3.org/2000/svg">
<line x1="1.5498" y1="3.41602" x2="16.0498" y2="3.41602" stroke="#B1B1B1" stroke-width="1.5" stroke-linecap="round"/>
<line x1="1.5498" y1="11.75" x2="16.0498" y2="11.75" stroke="#B1B1B1" stroke-width="1.5" stroke-linecap="round"/>
<path d="M12 0.75C13.3244 0.750111 14.45 1.87735 14.4502 3.33301C14.4502 4.78882 13.3245 5.91688 12 5.91699C10.6755 5.91699 9.5498 4.78889 9.5498 3.33301C9.54997 1.87728 10.6756 0.75 12 0.75Z" fill="#2F3847" stroke="#B1B1B1" stroke-width="1.5"/>
<path d="M3.2002 9.08398C4.52455 9.0841 5.65022 10.2113 5.65039 11.667C5.65039 13.1228 4.52465 14.2509 3.2002 14.251C1.87566 14.251 0.75 13.1229 0.75 11.667C0.750168 10.2113 1.87576 9.08398 3.2002 9.08398Z" fill="#2F3847" stroke="#B1B1B1" stroke-width="1.5"/>
</svg>
